<?xml version="1.0" standalone="no"?>
<!DOCTYPE svg PUBLIC "-//W3C//DTD SVG 20010904//EN"
 "http://www.w3.org/TR/2001/REC-SVG-20010904/DTD/svg10.dtd">
<svg version="1.0" xmlns="http://www.w3.org/2000/svg"
 width="542.000000pt" height="542.000000pt" viewBox="0 0 542.000000 542.000000"
 preserveAspectRatio="xMidYMid meet">
<metadata>
Created by potrace 1.14, written by Peter Selinger 2001-2017
</metadata>
<g transform="translate(0.000000,542.000000) scale(0.100000,-0.100000)"
fill="#000000" stroke="none">
<path d="M0 2710 l0 -2710 2710 0 2710 0 0 2710 0 2710 -2710 0 -2710 0 0
-2710z m3599 2255 c669 -152 1239 -282 1267 -290 105 -30 159 -135 118 -232
-12 -29 -339 -422 -937 -1128 -836 -987 -922 -1085 -962 -1101 -28 -10 -60
-15 -82 -12 -21 3 -497 144 -1058 314 -770 233 -1032 309 -1071 308 -78 0
-142 -37 -174 -99 -23 -46 -25 -60 -24 -180 0 -146 20 -218 72 -267 22 -22
234 -90 1175 -378 631 -193 1151 -350 1156 -348 5 2 346 420 758 929 l750 926
-7 54 c-10 70 6 223 30 300 24 78 56 126 100 149 85 44 166 34 230 -30 51 -51
66 -105 51 -180 -35 -175 -35 -173 -12 -239 27 -79 27 -115 -4 -198 -46 -129
-66 -232 -72 -373 -6 -162 11 -280 60 -403 43 -109 43 -176 0 -240 -17 -24
-401 -495 -853 -1046 -520 -633 -837 -1012 -862 -1028 -77 -52 -36 -63 -1363
362 -837 267 -1227 397 -1264 418 -151 90 -257 240 -312 442 -18 64 -22 109
-23 225 0 131 2 153 27 230 15 47 43 114 62 150 l35 65 -40 80 c-68 136 -84
218 -85 445 0 156 4 211 19 275 22 99 68 212 115 287 20 31 440 507 934 1056
931 1037 924 1030 1001 1031 16 1 576 -123 1245 -274z"/>
<path d="M2214 4551 c-42 -19 -168 -155 -200 -214 -14 -26 -14 -31 0 -52 9
-14 24 -29 34 -34 10 -5 307 -80 661 -166 560 -137 652 -157 706 -153 45 3 72
10 96 27 36 25 170 180 180 209 11 29 -9 62 -45 77 -58 25 -1308 325 -1351
325 -22 0 -59 -9 -81 -19z"/>
<path d="M3901 1942 c-350 -432 -630 -769 -650 -782 -79 -53 -46 -61 -1327
333 -639 196 -1168 357 -1176 357 -9 0 -28 -27 -44 -62 -26 -57 -29 -73 -29
-168 0 -75 5 -121 18 -161 21 -62 78 -143 117 -166 34 -19 2263 -732 2273
-726 4 2 336 406 739 896 402 491 737 899 745 908 12 15 12 25 -3 75 -9 33
-24 103 -33 156 l-17 98 -613 -758z"/>
</g>
</svg>
